<?xml version="1.0" encoding="utf-8"?>
<!-- Generator: Adobe Illustrator 16.0.0, SVG Export Plug-In . SVG Version: 6.00 Build 0)  -->
<!DOCTYPE svg PUBLIC "-//W3C//DTD SVG 1.1//EN" "http://www.w3.org/Graphics/SVG/1.1/DTD/svg11.dtd">
<svg version="1.1" id="圖層_1" xmlns="http://www.w3.org/2000/svg" xmlns:xlink="http://www.w3.org/1999/xlink" x="0px" y="0px"
	 width="100px" height="95.282px" viewBox="0 0 100 95.282" enable-background="new 0 0 100 95.282" xml:space="preserve">
<path fill="none" d="M84.539,17.073c-0.318-0.659-0.938-1.317-1.891-2.009c0.081-0.669,0.315-3.017-2.338-3.392
	c-2.13-0.339-4.314-0.647-6.497-0.913c-4.979-2.057-12.995-3.666-15.997-3.83C57.605,3.073,54.487,0,50.494,0
	C46.5,0,43.37,3.073,43.16,6.929c-3.004,0.164-11.994,1.773-16.974,3.83c-2.183,0.266-4.367,0.574-6.497,0.913
	c-2.653,0.375-2.419,2.723-2.338,3.392c-0.953,0.692-1.572,1.35-1.891,2.009c0,0-14.601-8.962-15.416-7.936
	c-0.818,1.027,9.896,9.876,9.896,9.876c-0.584,0.047-2.568,0.254-2.662,0.604c-0.093,0.35,6.558,6.027,6.558,6.027
	c-1.422,1.01-2.712,3.467-2.634,4.687c0.063,0.665,2.612,1.832,3.101,2.346c0.646,0.682,0.938,2.112,2.305,2.532
	c-1.127,0.127-2.991,1.554-3.896,3.976c-0.074,0.2,0.242,1.16,0.409,1.608c-0.077,0.028-1.229,0.076-1.826,0.455
	c-0.062,2.002,0.995,4.343,1.643,4.807c-0.001,0.003-0.001,0.007-0.003,0.011c-1.049,0.392-1.735,1.008-2.028,1.637
	c-0.558,1.197-0.223,2.495,0.376,3.366c-1.393,0.263-2.183,1.483-2.183,1.483c0.265,1.914,2.536,3.548,3.27,3.765
	c-0.88,1.727-1.537,4.165-1.588,7.089c-0.071,4.038,0.886,7.144,0.886,7.144s2.294-0.771,2.747-0.626
	c4.894,10.607,14.542,14.24,19.797,16.366c4.846,1.959,11.583,5.313,14.675,8.5c0.281,0.313,0.744,0.491,1.12,0.491
	s0.827-0.178,1.11-0.491c3.091-3.187,9.828-6.541,14.673-8.5c5.255-2.126,14.903-5.759,19.798-16.366
	c0.452-0.146,2.746,0.626,2.746,0.626s0.957-3.105,0.887-7.144c-0.052-2.924-0.709-5.362-1.589-7.089
	c0.733-0.217,3.005-1.851,3.27-3.765c0,0-0.79-1.22-2.183-1.483c0.6-0.871,0.934-2.169,0.376-3.366
	c-0.293-0.629-0.979-1.245-2.028-1.637c-0.002-0.003-0.002-0.007-0.003-0.011c0.647-0.464,1.704-2.805,1.643-4.807
	c-0.598-0.378-1.749-0.427-1.826-0.455c0.167-0.448,0.483-1.409,0.409-1.608c-0.904-2.422-2.769-3.849-3.896-3.976
	c1.367-0.42,1.658-1.85,2.305-2.532c0.488-0.514,3.038-1.681,3.103-2.346c0.076-1.22-1.214-3.677-2.636-4.687
	c0,0,6.65-5.677,6.558-6.027c-0.094-0.35-2.078-0.557-2.661-0.604c0,0,10.713-8.849,9.896-9.876
	c-0.714-0.899-11.99,5.855-14.791,7.554"/>
</svg>
